<svg viewBox="0 0 200 200" xmlns="http://www.w3.org/2000/svg">
  <defs>
    <style>
      @keyframes glow {
        0%, 100% { filter: drop-shadow(0 0 4px #00ff88) drop-shadow(0 0 8px #00ff88); }
        50% { filter: drop-shadow(0 0 8px #00ff88) drop-shadow(0 0 16px #00ff88); }
      }
      @keyframes pulse {
        0%, 100% { filter: drop-shadow(0 0 2px #ff0055) drop-shadow(0 0 4px #ff0055); }
        50% { filter: drop-shadow(0 0 6px #ff0055) drop-shadow(0 0 12px #ff0055); }
      }
      .glow-green { animation: glow 2s ease-in-out infinite; }
      .pulse-red { animation: pulse 1.5s ease-in-out infinite; }
    </style>
    <radialGradient id="diamondGrad" cx="50%" cy="50%" r="50%">
      <stop offset="0%" style="stop-color:#ff0055;stop-opacity:1" />
      <stop offset="100%" style="stop-color:#ff6600;stop-opacity:1" />
    </radialGradient>
  </defs>
  
  <!-- Outer rings -->
  <circle cx="100" cy="100" r="95" fill="none" stroke="#00ff88" stroke-width="2" opacity="0.6" class="glow-green"/>
  <circle cx="100" cy="100" r="88" fill="none" stroke="#00ccff" stroke-width="1.5" opacity="0.4"/>
  <circle cx="100" cy="100" r="82" fill="none" stroke="#ff0055" stroke-width="1" opacity="0.3" class="pulse-red"/>
  
  <!-- Circuit pattern on outer ring -->
  <g stroke="#ff0055" stroke-width="1" fill="none" opacity="0.5" class="pulse-red">
    <line x1="100" y1="10" x2="100" y2="25"/>
    <line x1="100" y1="175" x2="100" y2="190"/>
    <line x1="10" y1="100" x2="25" y2="100"/>
    <line x1="175" y1="100" x2="190" y2="100"/>
    <path d="M 140 30 L 150 20 L 160 30" stroke="#ff0055" stroke-width="0.8" fill="none"/>
    <path d="M 60 30 L 50 20 L 40 30" stroke="#ff0055" stroke-width="0.8" fill="none"/>
    <path d="M 140 170 L 150 180 L 160 170" stroke="#ff0055" stroke-width="0.8" fill="none"/>
    <path d="M 60 170 L 50 180 L 40 170" stroke="#ff0055" stroke-width="0.8" fill="none"/>
  </g>
  
  <!-- Center diamond (forge symbol) -->
  <g class="pulse-red">
    <polygon points="100,60 120,80 100,100 80,80" fill="url(#diamondGrad)" stroke="#ff0055" stroke-width="1.5"/>
    <polygon points="100,60 120,80 100,100 80,80" fill="none" stroke="#ff0055" stroke-width="1" opacity="0.6"/>
  </g>
  
  <!-- Y shape (YUGA) -->
  <g stroke="#00ff88" stroke-width="2.5" fill="none" class="glow-green" stroke-linecap="round" stroke-linejoin="round">
    <!-- Left arm of Y -->
    <line x1="70" y1="75" x2="85" y2="95"/>
    <!-- Right arm of Y -->
    <line x1="130" y1="75" x2="115" y2="95"/>
    <!-- Center stem of Y -->
    <line x1="100" y1="95" x2="100" y2="130"/>
  </g>
  
  <!-- Decorative circles on Y arms -->
  <circle cx="70" cy="75" r="2.5" fill="#00ff88" class="glow-green"/>
  <circle cx="130" cy="75" r="2.5" fill="#00ff88" class="glow-green"/>
  <circle cx="100" cy="130" r="2.5" fill="#00ff88" class="glow-green"/>
  
  <!-- Inner accent circles -->
  <circle cx="100" cy="100" r="3" fill="none" stroke="#00ccff" stroke-width="1" opacity="0.8"/>
  <circle cx="100" cy="100" r="6" fill="none" stroke="#00ff88" stroke-width="0.8" opacity="0.4" class="glow-green"/>
</svg>
